# xmcd
#
# Track frame offsets:
#	151
#	14563
#	25513
#	38683
#	50806
#	61925
#	73198
#	87426
#	100475
#	112878
#	125243
#	137557
#	150340
#	163219
#	174767
#	188816
#	202439
#	213699
#	227348
#	240377
#	255752
#	269869
#	280993
#	293340
#	306865
#
# Disc length: 4285 seconds
#
# Revision: 0
# Processed by: cddbd v1.5.2PL0 Copyright (c) Steve Scherf et al.
# Submitted via: EasyCDDAExtractor 2010.6.0.0
#
DISCID=6910bb19
DTITLE=Various Artist - Les Legendes Du Blues. CD 1
DYEAR=2007
DGENRE=blues
TTITLE0=John Lee Hooker - Boogie Chillen
TTITLE1=Muddy Waters - Stand Here Tremblin
TTITLE2=Big Mabel Smith - Too Tight Mama
TTITLE3=T-Bone Walker - Lonesome Woman Blues
TTITLE4=Champion Jack Dupree - My Baby's Gone
TTITLE5=Marion Abernathy - My Man Boogie
TTITLE6=Amos Milburn - Bye Bye Boogie
TTITLE7=Big Bill Broonzy - ะก and A Blues
TTITLE8=Memphis Minnie - Me And My Chauffeur Blues
TTITLE9=Sonny Terry - Whoopin' The Blues
TTITLE10=Big Maceo Merriweather - Broke And Hungry Blues
TTITLE11=Wynonie Harris - Lollipop Mama
TTITLE12=Sonny Boy Williamson - I Been Dealing With The Devil
TTITLE13=Jimmy Witherspoon - Bar Fly Blues
TTITLE14=Joe Swift - Lovin' Baby Blues
TTITLE15=Lonnie Johnson - Hot Fingers
TTITLE16=Joe Turner - Howlin' Winds
TTITLE17=Lightnin' Hopkins - Katie Mae Blues
TTITLE18=Brownie Mcghee - Goodbye Now
TTITLE19=Memphis Slim - Beer Drinking Woman
TTITLE20=Blind Boy Fuller - Rag Mama, Rag
TTITLE21=Nellie Lutcher - Hurry On Down
TTITLE22=Muddy Waters - I Can't Be Satisfied
TTITLE23=Helen Humes - He May Be Your Man
TTITLE24=John Lee Hooker - Hobo Blues
EXTD=
EXTT0=
EXTT1=
EXTT2=
EXTT3=
EXTT4=
EXTT5=
EXTT6=
EXTT7=
EXTT8=
EXTT9=
EXTT10=
EXTT11=
EXTT12=
EXTT13=
EXTT14=
EXTT15=
EXTT16=
EXTT17=
EXTT18=
EXTT19=
EXTT20=
EXTT21=
EXTT22=
EXTT23=
EXTT24=
PLAYORDER=
